<svg width="25" height="25" viewBox="0 0 25 25" fill="none" xmlns="http://www.w3.org/2000/svg">
<path d="M12.5 1.5625C6.45996 1.5625 1.5625 6.45996 1.5625 12.5C1.5625 18.54 6.45996 23.4375 12.5 23.4375C18.54 23.4375 23.4375 18.54 23.4375 12.5C23.4375 6.45996 18.54 1.5625 12.5 1.5625ZM16.5381 16.6553L14.9268 16.6479L12.5 13.7549L10.0757 16.6455L8.46191 16.6528C8.35449 16.6528 8.2666 16.5674 8.2666 16.4575C8.2666 16.4111 8.28369 16.3672 8.31299 16.3306L11.4893 12.5464L8.31299 8.76465C8.28349 8.72887 8.26712 8.68407 8.2666 8.6377C8.2666 8.53027 8.35449 8.44238 8.46191 8.44238L10.0757 8.44971L12.5 11.3428L14.9243 8.45215L16.5356 8.44482C16.6431 8.44482 16.731 8.53027 16.731 8.64014C16.731 8.68652 16.7139 8.73047 16.6846 8.76709L13.5132 12.5488L16.687 16.333C16.7163 16.3696 16.7334 16.4136 16.7334 16.46C16.7334 16.5674 16.6455 16.6553 16.5381 16.6553Z" fill="#FF6347"/>
</svg>
